<?xml version="1.0" standalone="no"?>
<!DOCTYPE svg PUBLIC "-//W3C//DTD SVG 20010904//EN"
 "http://www.w3.org/TR/2001/REC-SVG-20010904/DTD/svg10.dtd">
<svg version="1.0" xmlns="http://www.w3.org/2000/svg"
 width="1127.000000pt" height="1280.000000pt" viewBox="0 0 1127.000000 1280.000000"
 preserveAspectRatio="xMidYMid meet">
<metadata>
Created by potrace 1.15, written by Peter Selinger 2001-2017
</metadata>
<g transform="translate(0.000000,1280.000000) scale(0.100000,-0.100000)"
fill="#b61619" stroke="none">
<path d="M5160 12789 c-129 -5 -280 -13 -335 -18 -428 -43 -546 -58 -815 -106
-535 -95 -961 -230 -1540 -487 -206 -92 -259 -121 -430 -233 -107 -70 -287
-201 -400 -290 -171 -136 -232 -193 -371 -342 -385 -413 -619 -768 -803 -1218
-54 -132 -136 -352 -183 -490 -77 -227 -89 -274 -134 -515 -26 -146 -67 -402
-88 -570 -35 -264 -42 -349 -51 -630 l-11 -325 31 -280 c17 -154 53 -485 80
-735 27 -250 86 -788 130 -1195 44 -407 103 -946 130 -1197 28 -252 73 -666
100 -920 28 -255 59 -544 70 -643 11 -99 47 -430 80 -735 97 -889 158 -1454
175 -1615 8 -82 21 -167 27 -187 l11 -38 1779 -2 1778 -3 304 685 304 685 -84
1095 c-46 602 -83 1105 -84 1117 0 14 -5 21 -13 18 -10 -4 -44 439 -159 2052
-141 1986 -146 2063 -136 2213 20 324 130 609 313 806 99 108 278 255 440 364
91 61 130 80 230 113 204 66 399 74 633 27 298 -59 503 -156 697 -329 96 -85
122 -115 206 -242 172 -259 183 -282 218 -459 16 -85 37 -220 46 -300 9 -80
19 -148 21 -152 2 -4 -11 -247 -31 -540 -42 -644 -109 -1679 -210 -3233 -41
-638 -78 -1202 -82 -1254 -5 -78 -9 -94 -24 -98 -14 -4 -19 -19 -24 -66 -7
-74 -185 -2455 -185 -2478 0 -15 41 -17 423 -23 232 -3 1062 -8 1844 -11
l1421 -6 8 23 c3 13 11 26 17 29 5 4 51 425 102 935 52 511 98 976 105 1034 6
58 15 148 21 200 5 52 14 133 20 180 5 47 16 159 23 250 8 91 128 1290 266
2665 l251 2500 -11 303 c-9 260 -16 343 -50 580 -58 419 -128 714 -240 1022
-119 327 -266 637 -428 903 -107 175 -153 240 -288 400 -229 273 -443 472
-707 659 -111 79 -298 204 -417 279 -184 116 -249 150 -455 241 -369 163 -673
267 -1005 344 -648 151 -1174 223 -1788 244 -330 11 -372 11 -722 -1z"/>
</g>
</svg>
